<svg xmlns="http://www.w3.org/2000/svg" width="52" height="71" viewBox="0 0 52 71"><g><g><path d="M25.5 10.52h1v49.96h-1z"/><path fill="none" stroke="#000" stroke-miterlimit="20" d="M25.5 10.52v0h1v49.96h-1v0z"/></g><g><path d="M14 16h4a4 4 0 0 1 4 4v30a4 4 0 0 1-4 4h-4a4 4 0 0 1-4-4V20a4 4 0 0 1 4-4z"/><path fill="none" stroke="#000" stroke-miterlimit="20" d="M14 16h4a4 4 0 0 1 4 4v30a4 4 0 0 1-4 4h-4a4 4 0 0 1-4-4V20a4 4 0 0 1 4-4z"/></g><g><path d="M34 16h4a4 4 0 0 1 4 4v30a4 4 0 0 1-4 4h-4a4 4 0 0 1-4-4V20a4 4 0 0 1 4-4z"/><path fill="none" stroke="#000" stroke-miterlimit="20" d="M34 16h4a4 4 0 0 1 4 4v30a4 4 0 0 1-4 4h-4a4 4 0 0 1-4-4V20a4 4 0 0 1 4-4z"/></g></g></svg>