<svg xmlns="http://www.w3.org/2000/svg" width="68" height="72" viewBox="0 0 68 72"><g><g><path d="M10.5 10.53h1v50.94h-1z"/><path fill="none" stroke="#000" stroke-miterlimit="20" d="M10.5 10.53v0h1v50.94h-1v0z"/></g><g><path d="M56.5 11.52h1v49.96h-1z"/><path fill="none" stroke="#000" stroke-miterlimit="20" d="M56.5 11.52v0h1v49.96h-1v0z"/></g><g><path d="M21 17h4a4 4 0 0 1 4 4v30a4 4 0 0 1-4 4h-4a4 4 0 0 1-4-4V21a4 4 0 0 1 4-4z"/><path fill="none" stroke="#000" stroke-miterlimit="20" d="M21 17h4a4 4 0 0 1 4 4v30a4 4 0 0 1-4 4h-4a4 4 0 0 1-4-4V21a4 4 0 0 1 4-4z"/></g><g><path d="M41 17h4a4 4 0 0 1 4 4v30a4 4 0 0 1-4 4h-4a4 4 0 0 1-4-4V21a4 4 0 0 1 4-4z"/><path fill="none" stroke="#000" stroke-miterlimit="20" d="M41 17h4a4 4 0 0 1 4 4v30a4 4 0 0 1-4 4h-4a4 4 0 0 1-4-4V21a4 4 0 0 1 4-4z"/></g></g></svg>